<svg width="174" height="81" viewBox="0 0 174 81" fill="none" xmlns="http://www.w3.org/2000/svg">
<path d="M170.061 64.5134C168.724 65.7264 167.13 66.6439 165.28 67.2659C163.445 67.8724 161.415 68.1757 159.191 68.1757C157.465 68.1757 155.887 68.0279 154.456 67.7325C153.025 67.4214 151.727 67.0016 150.561 66.4728C149.394 65.9441 148.352 65.3376 147.435 64.6534C146.517 63.9536 145.701 63.2227 144.986 62.4607V79.4423H138.617V45.2225H144.986V49.8644C145.032 50.1443 145.094 50.5176 145.172 50.9841C145.265 51.4506 145.39 51.9716 145.545 52.547C145.716 53.1068 145.926 53.7133 146.175 54.3664C146.44 55.004 146.758 55.6494 147.132 56.3025C149.604 60.6257 153.624 62.7873 159.191 62.7873C160.746 62.7873 162.138 62.5929 163.367 62.2041C164.595 61.8153 165.629 61.2477 166.469 60.5013C167.138 59.9103 167.643 59.2339 167.985 58.4719C168.343 57.6943 168.522 56.8779 168.522 56.0226C168.522 55.2606 168.366 54.5064 168.055 53.7599C167.76 53.0135 167.293 52.3448 166.656 51.7539C166.034 51.1474 165.233 50.6653 164.253 50.3076C163.289 49.9344 162.146 49.7478 160.824 49.7478C158.6 49.7478 156.649 50.1754 154.969 51.0307C153.29 51.8705 151.828 53.169 150.584 54.9263L146.175 51.8005C147.917 49.3435 150.024 47.4929 152.497 46.2488C154.969 44.9892 157.745 44.3594 160.824 44.3594C162.768 44.3594 164.549 44.6548 166.166 45.2458C167.799 45.8367 169.222 46.7153 170.435 47.8817C171.554 48.9702 172.41 50.2143 173.001 51.6139C173.607 52.9979 173.91 54.4675 173.91 56.0226C173.91 57.671 173.584 59.2183 172.931 60.6646C172.277 62.1108 171.321 63.3937 170.061 64.5134Z" fill="#79B3FF"/>
<path d="M134.652 66.2396C134.652 69.0544 134.465 71.387 134.092 73.2376C133.719 75.0881 133.167 76.5655 132.436 77.6696C131.721 78.7582 130.819 79.5279 129.73 79.9789C128.657 80.4299 127.413 80.6554 125.998 80.6554C124.723 80.6554 123.595 80.4688 122.616 80.0955C121.651 79.7223 120.819 79.2325 120.12 78.626C119.42 78.0195 118.837 77.343 118.37 76.5966C117.904 75.8501 117.53 75.1037 117.25 74.3572C116.971 73.6108 116.776 72.9032 116.667 72.2345C116.558 71.5658 116.504 71.0138 116.504 70.5784H122.056C122.056 72.3201 122.398 73.6419 123.082 74.5439C123.782 75.4303 124.676 75.8735 125.765 75.8735C126.387 75.8735 126.892 75.6791 127.281 75.2903C127.67 74.886 127.973 74.3106 128.191 73.5641C128.424 72.8177 128.579 71.9235 128.657 70.8816C128.735 69.8241 128.774 68.6423 128.774 67.336V67.2893C128.245 67.3671 127.74 67.4293 127.258 67.4759C126.791 67.5226 126.34 67.5459 125.905 67.5459C124.07 67.5459 122.538 67.2271 121.309 66.5895C120.081 65.952 119.093 65.1122 118.347 64.0703C117.6 63.0128 117.048 61.8232 116.691 60.5013C116.349 59.164 116.139 57.7955 116.061 56.3959C116.03 55.8672 116.014 55.3306 116.014 54.7864C116.014 51.925 116.426 48.7448 117.25 45.2458H123.245C122.483 48.5271 122.079 51.4507 122.032 54.0166C122.032 54.1254 122.032 54.2421 122.032 54.3665C122.032 55.3306 122.095 56.3181 122.219 57.3289C122.343 58.3242 122.592 59.2339 122.965 60.0581C123.354 60.8668 123.883 61.5277 124.552 62.0409C125.236 62.5385 126.107 62.7873 127.164 62.7873C127.615 62.7873 128.152 62.7251 128.774 62.6007V45.2458H134.652V66.2396Z" fill="#79B3FF"/>
<path d="M114.055 45.2458V50.6343H108.083V79.4424H101.948V50.6343H96V45.2458H114.055Z" fill="#79B3FF"/>
<path d="M138.162 4.89855H128.295L130.511 0H138.162V4.89855ZM144.344 7.04458V41.2411H138.419V18.3579L128.062 41.2411H122.114V7.04458H128.039V29.9278L138.396 7.02126L144.344 7.04458Z" fill="white"/>
<path d="M117.425 27.2686C117.41 27.5796 117.402 27.8984 117.402 28.225C117.402 28.8315 117.433 29.5313 117.495 30.3244C117.573 31.1175 117.713 31.9417 117.915 32.797C118.117 33.6367 118.366 34.3676 118.662 34.9897C118.957 35.5962 119.291 36.0005 119.665 36.2026L116.656 41.8243C116.049 41.5444 115.505 41.1867 115.023 40.7513C114.556 40.3003 114.136 39.7949 113.763 39.2351C113.39 38.6752 113.063 38.0765 112.783 37.4389C112.519 36.8014 112.286 36.1482 112.084 35.4795C111.197 36.4281 110.21 37.299 109.121 38.0921C108.033 38.8852 106.851 39.5772 105.576 40.1681C104.316 40.7435 102.971 41.1945 101.54 41.5211C100.125 41.8632 98.6398 42.0576 97.0847 42.1042C96.8825 42.1042 96.6881 42.1042 96.5015 42.1042C95.1952 42.1042 93.9045 41.9565 92.6293 41.661C91.3542 41.3811 90.1412 40.9612 88.9904 40.4014C87.8552 39.826 86.8288 39.1573 85.9113 38.3953C85.0094 37.6178 84.2396 36.7858 83.602 35.8994C82.9644 35.013 82.4746 34.0955 82.1324 33.1469C81.8059 32.1827 81.6426 31.2419 81.6426 30.3244C81.6426 28.8004 81.8914 27.5097 82.389 26.4522C82.9022 25.3792 83.5553 24.485 84.3484 23.7697C85.1571 23.0388 86.0591 22.4556 87.0543 22.0202C88.0651 21.5847 89.0682 21.2504 90.0634 21.0171C91.0742 20.7839 92.0228 20.6206 92.9092 20.5273C93.8112 20.434 94.5576 20.364 95.1486 20.3173L95.4752 20.294C96.4238 20.2163 97.5123 20.1541 98.7409 20.1074C99.9849 20.0452 101.291 20.0063 102.66 19.9908C104.028 19.9597 105.42 19.9441 106.835 19.9441C108.266 19.9441 109.642 19.9519 110.964 19.9674C110.964 19.081 110.661 18.1635 110.054 17.2149C109.448 16.2508 108.616 15.3721 107.558 14.579C106.501 13.7704 105.241 13.1095 103.779 12.5963C102.333 12.0676 100.77 11.8032 99.0908 11.8032C98.1577 11.8032 97.1935 11.8965 96.1983 12.0831C95.2186 12.2697 94.2155 12.573 93.1892 12.9928C92.1784 13.4127 91.152 13.957 90.1101 14.6257C89.0682 15.2788 88.034 16.0797 87.0077 17.0283L82.9022 13.3194C84.0219 12.0598 85.2504 10.979 86.5878 10.077C87.9407 9.17508 89.3248 8.43641 90.7399 7.86102C92.1706 7.28564 93.5935 6.86576 95.0086 6.60139C96.4393 6.32148 97.8 6.18152 99.0908 6.18152C101.392 6.18152 103.445 6.42256 105.249 6.90464C107.053 7.38672 108.631 8.02431 109.984 8.81741C111.353 9.59495 112.503 10.4814 113.437 11.4766C114.385 12.4719 115.155 13.4827 115.746 14.5091C116.337 15.5354 116.764 16.5307 117.029 17.4948C117.293 18.459 117.425 19.3065 117.425 20.0374C117.425 20.053 117.41 20.0607 117.379 20.0607C117.363 20.0607 117.355 20.0685 117.355 20.0841H117.425V27.2686ZM89.387 33.5201C90.5222 34.5465 91.774 35.3007 93.1425 35.7828C94.511 36.2648 95.9261 36.5059 97.3879 36.5059C98.9741 36.5059 100.545 36.2415 102.1 35.7128C103.655 35.1841 105.078 34.4376 106.369 33.4734C107.675 32.4937 108.787 31.3274 109.704 29.9745C110.622 28.606 111.228 27.082 111.524 25.4025C110.202 25.387 108.818 25.3792 107.372 25.3792C105.941 25.3792 104.534 25.3947 103.15 25.4258C101.766 25.4414 100.451 25.4725 99.2074 25.5191C97.9633 25.5658 96.8747 25.628 95.9417 25.7057L95.5918 25.7291C94.0211 25.869 92.7304 26.0479 91.7196 26.2656C90.7088 26.4833 89.9079 26.771 89.317 27.1287C88.726 27.4863 88.3139 27.9295 88.0807 28.4583C87.8474 28.9714 87.7308 29.5935 87.7308 30.3244C87.7308 30.9153 87.8785 31.4752 88.174 32.0039C88.485 32.5171 88.8893 33.0225 89.387 33.5201Z" fill="white"/>
<path d="M77.5605 26.3122C76.2231 27.5252 74.6291 28.4427 72.7786 29.0648C70.9436 29.6713 68.9142 29.9745 66.6904 29.9745C64.9642 29.9745 63.3858 29.8268 61.9551 29.5313C60.5244 29.2203 59.2259 28.8004 58.0596 28.2717C56.8933 27.7429 55.8514 27.1364 54.9338 26.4522C54.0163 25.7524 53.1999 25.0215 52.4846 24.2595V41.2412H46.1165V7.02128H52.4846V11.6632C52.5312 11.9432 52.5934 12.3164 52.6712 12.7829C52.7645 13.2494 52.8889 13.7704 53.0444 14.3458C53.2155 14.9056 53.4254 15.5121 53.6742 16.1652C53.9386 16.8028 54.2574 17.4482 54.6306 18.1013C57.1032 22.4245 61.1231 24.5861 66.6904 24.5861C68.2455 24.5861 69.6373 24.3917 70.8658 24.0029C72.0943 23.6142 73.1285 23.0465 73.9682 22.3001C74.6369 21.7092 75.1423 21.0327 75.4844 20.2707C75.8421 19.4931 76.0209 18.6767 76.0209 17.8214C76.0209 17.0594 75.8654 16.3052 75.5544 15.5588C75.259 14.8123 74.7924 14.1436 74.1548 13.5527C73.5328 12.9462 72.7319 12.4641 71.7522 12.1064C70.788 11.7332 69.6451 11.5466 68.3232 11.5466C66.0994 11.5466 64.1478 11.9743 62.4683 12.8296C60.7888 13.6693 59.327 14.9678 58.0829 16.7251L53.6742 13.5993C55.4159 11.1423 57.5231 9.29172 59.9957 8.04764C62.4683 6.78802 65.2441 6.1582 68.3232 6.1582C70.2671 6.1582 72.0477 6.45367 73.665 7.04461C75.2978 7.63554 76.7207 8.51417 77.9337 9.6805C79.0534 10.7691 79.9087 12.0131 80.4996 13.4127C81.1061 14.7968 81.4094 16.2663 81.4094 17.8214C81.4094 19.4698 81.0828 21.0171 80.4296 22.4634C79.7765 23.9096 78.8201 25.1926 77.5605 26.3122Z" fill="white"/>
<path d="M32.7503 31.5607C33.2635 32.1516 33.7922 32.6726 34.3365 33.1236C34.8964 33.559 35.4562 33.94 36.016 34.2666C36.5759 34.5931 37.1279 34.8653 37.6722 35.083C38.2165 35.2852 38.7374 35.4484 39.2351 35.5729C40.3392 35.8528 41.4355 35.9927 42.5241 35.9927C42.5707 35.9927 42.6252 35.9927 42.6874 35.9927L44.2269 41.1712C44.1647 41.1867 43.8848 41.2412 43.3872 41.3345C42.9051 41.4433 42.252 41.4978 41.4278 41.4978C39.9038 41.4978 38.5119 41.3423 37.2523 41.0312C35.9927 40.7202 34.8419 40.3081 33.8 39.7949C32.7581 39.2818 31.8017 38.6908 30.9309 38.0221C30.0756 37.3379 29.2669 36.6225 28.5049 35.8761C27.7585 35.1297 27.0509 34.3832 26.3822 33.6368C25.7135 32.8748 25.0526 32.1594 24.3995 31.4907C23.7463 30.822 23.0776 30.2155 22.3934 29.6713C21.7247 29.127 21.0093 28.6993 20.2473 28.3883C19.392 28.0306 18.5056 27.7429 17.5881 27.5252C16.6862 27.3075 15.792 27.1442 14.9056 27.0354C14.0192 26.911 13.1561 26.8254 12.3164 26.7788C11.4922 26.7321 10.7379 26.7088 10.0537 26.7088C9.04288 26.7088 8.24201 26.7321 7.65107 26.7788C7.30895 26.7943 7.00571 26.8177 6.74134 26.8488V41.2412H0V7.04462H6.74134V21.2971C9.02733 21.2971 11.0256 21.2038 12.7362 21.0172C14.4468 20.8305 15.932 20.5817 17.1916 20.2707C18.4512 19.9597 19.5165 19.5942 20.3873 19.1744C21.2737 18.7545 22.0202 18.3191 22.6266 17.8681C23.2487 17.4016 23.7774 16.9273 24.2128 16.4452C24.6483 15.9631 25.0448 15.4966 25.4025 15.0456C26.8487 13.2728 28.3261 11.8576 29.8345 10.8002C31.343 9.72716 32.8047 8.90296 34.2199 8.32758C35.635 7.75219 36.9569 7.37119 38.1854 7.18458C39.4295 6.99797 40.4947 6.90466 41.3811 6.90466C42.1275 6.90466 42.7185 6.93577 43.1539 6.99797C43.6049 7.06017 43.8537 7.09905 43.9004 7.1146L42.3841 12.2931C42.2753 12.262 42.1509 12.2386 42.0109 12.2231C41.7621 12.1764 41.4122 12.1531 40.9612 12.1531C40.4325 12.1531 39.7794 12.2231 39.0018 12.363C38.2398 12.4875 37.3923 12.7674 36.4592 13.2028C35.5262 13.6227 34.5387 14.2292 33.4968 15.0223C32.4548 15.7998 31.3974 16.8417 30.3244 18.148C29.92 18.6301 29.4535 19.151 28.9248 19.7109C28.4116 20.2552 27.8518 20.7839 27.2453 21.2971C26.6388 21.7947 25.9857 22.2457 25.2859 22.65C24.6016 23.0543 23.8863 23.3498 23.1398 23.5364C23.6375 23.6919 24.1973 23.9718 24.8193 24.3762C25.4414 24.7805 26.079 25.247 26.7321 25.7758C27.3852 26.2889 28.0306 26.8488 28.6682 27.4553C29.3213 28.0462 29.92 28.6138 30.4643 29.1581C31.0086 29.6868 31.4829 30.1689 31.8872 30.6043C32.2916 31.0397 32.5793 31.3585 32.7503 31.5607Z" fill="white"/>
</svg>
